<svg xmlns="http://www.w3.org/2000/svg" viewBox="0 0 200.1 200.1" fill="#ff7300">
  <path d="M150 78.6c-15.8 0-28.6-12.8-28.6-28.6V0H78.5v50c0 15.8-12.8 28.6-28.6 28.6H0v42.9h50c15.8 0 28.6 12.8 28.6 28.6v50h42.9v-50c0-15.8 12.8-28.6 28.6-28.6h50V78.6H150zm40.5 33.3H150c-21 0-38.1 17.1-38.1 38.1v40.5H88.1V150c0-21-17.1-38.1-38.1-38.1H9.5V88.1H50C71 88.1 88.1 71 88.1 50V9.5h23.8V50c0 21 17.1 38.1 38.1 38.1h40.5v23.8z"></path>
  <path d="M150 95.2c-24.9 0-45.2-20.3-45.2-45.2V16.7h-9.5V50c0 24.9-20.3 45.2-45.2 45.2H16.7v9.5H50c24.9 0 45.2 20.3 45.2 45.2v33.3h9.5v-33.3c0-24.9 20.3-45.2 45.2-45.2h33.3v-9.5h-33.3.1zm-50 32.5c-5.5-12.3-15.4-22.2-27.7-27.7 12.3-5.5 22.2-15.4 27.7-27.7 5.5 12.3 15.4 22.2 27.7 27.7-12.3 5.5-22.2 15.4-27.7 27.7zM128.6 50c0 11.8 9.6 21.4 21.4 21.4h21.4V28.6h-42.9V50h.1zM50 71.4c11.8 0 21.4-9.6 21.4-21.4V28.6H28.6v42.9H50zM71.4 150c0-11.8-9.6-21.4-21.4-21.4H28.6v42.9h42.9v-21.4h0zm78.6-21.4c-11.8 0-21.4 9.6-21.4 21.4v21.4h42.9v-42.9H150z"></path>
</svg>
